<svg xmlns="http://www.w3.org/2000/svg" width="16" height="16" fill="currentColor" class="bi bi-tv" viewBox="0 0 16 16">
  <style>
    @media (prefers-color-scheme: dark) {
      .a { fill: #f0f0f0 }
    }
  </style>
  <path class="a" d="M2.5 13.5A.5.5 0 0 1 3 13h10a.5.5 0 0 1 0 1H3a.5.5 0 0 1-.5-.5zM13.991 3l.024.001a1.46 1.46 0 0 1 .538.143.757.757 0 0 1 .302.254c.067.1.145.277.145.602v5.991l-.001.024a1.464 1.464 0 0 1-.143.538.758.758 0 0 1-.254.302c-.1.067-.277.145-.602.145H2.009l-.024-.001a1.464 1.464 0 0 1-.538-.143.758.758 0 0 1-.302-.254C1.078 10.502 1 10.325 1 10V4.009l.001-.024a1.46 1.46 0 0 1 .143-.538.758.758 0 0 1 .254-.302C1.498 3.078 1.675 3 2 3h11.991zM14 2H2C0 2 0 4 0 4v6c0 2 2 2 2 2h12c2 0 2-2 2-2V4c0-2-2-2-2-2z"></path>
  <path class="a" fill-rule="evenodd" d="M 4.173 10.07 C 4.271 10.168 4.429 10.168 4.527 10.07 L 7.525 7.072 C 7.622 6.975 7.622 6.817 7.525 6.719 L 4.527 3.72 C 4.391 3.585 4.158 3.647 4.108 3.833 C 4.085 3.919 4.11 4.012 4.173 4.075 L 6.995 6.895 L 4.173 9.716 C 4.075 9.814 4.075 9.973 4.173 10.07 Z" style="" transform="matrix(-1, 0, 0, -1, 11.697249, 13.790858)"></path>
  <path class="a" fill-rule="evenodd" d="M 8.476 3.721 C 8.574 3.623 8.732 3.623 8.83 3.721 L 11.828 6.719 C 11.925 6.816 11.925 6.974 11.828 7.072 L 8.83 10.071 C 8.694 10.206 8.461 10.144 8.411 9.958 C 8.388 9.872 8.413 9.779 8.476 9.716 L 11.298 6.896 L 8.476 4.075 C 8.378 3.977 8.378 3.818 8.476 3.721 Z" style=""></path>
</svg>